<?xml version="1.0" encoding="iso-8859-1"?>
<!-- Generator: Adobe Illustrator 19.0.0, SVG Export Plug-In . SVG Version: 6.00 Build 0)  -->
<svg version="1.1" id="Capa_1" xmlns="http://www.w3.org/2000/svg" xmlns:xlink="http://www.w3.org/1999/xlink" x="0px" y="0px"
	 viewBox="0 0 512 512" style="enable-background:new 0 0 512 512;" xml:space="preserve">
<path style="fill:#FF0435;" d="M432.551,176.556c0,39.795-27.916,105.826-82.959,196.273
	c-40.255,66.141-81.079,122.073-81.489,122.623L255.995,512l-12.098-16.548c-0.41-0.55-41.234-56.482-81.489-122.623
	c-55.042-90.448-82.959-156.479-82.959-196.273C79.449,79.199,158.648,0,255.995,0C353.352,0,432.551,79.199,432.551,176.556z"/>
<path style="fill:#C2001B;" d="M432.551,176.556c0,39.795-27.916,105.826-82.959,196.273
	c-40.255,66.141-81.079,122.073-81.489,122.623L255.995,512V0C353.352,0,432.551,79.199,432.551,176.556z"/>
<path style="fill:#FFFFFF;" d="M273.863,88.708h-65.041v191.664h29.996v-77.249h35.045c31.536,0,57.202-25.666,57.202-57.202
	C331.065,114.374,305.398,88.708,273.863,88.708z M273.863,173.126h-35.045v-54.423h35.045c14.998,0,27.206,12.208,27.206,27.216
	C301.069,160.918,288.861,173.126,273.863,173.126z"/>
<path style="fill:#E1E1E3;" d="M331.065,145.92c0,31.536-25.667,57.202-57.202,57.202h-17.868v-29.996h17.868
	c14.998,0,27.206-12.208,27.206-27.206c0-15.008-12.208-27.216-27.206-27.216h-17.868V88.708h17.868
	C305.398,88.708,331.065,114.374,331.065,145.92z"/>
<g>
</g>
<g>
</g>
<g>
</g>
<g>
</g>
<g>
</g>
<g>
</g>
<g>
</g>
<g>
</g>
<g>
</g>
<g>
</g>
<g>
</g>
<g>
</g>
<g>
</g>
<g>
</g>
<g>
</g>
</svg>
